# xmcd
#
# Track frame offsets: 
#        150
#        16357
#        47732
#        62327
#        81965
#        97530
#        114675
#        130522
#        151540
#        170597
#
# Disc length: 2582 seconds
#
# Revision: 0
# Processed by: cddbd v1.5.2PL0 Copyright (c) Steve Scherf et al.
# Submitted via: ExactAudioCopy v0.95b3
#
DISCID=680a140a
DTITLE=Jefferson Starship  - Red Octopus [24K GOLD DCC MASTERED - EAC 
DTITLE=FLAC]
DYEAR=1900
DGENRE=
TTITLE0=Fast Buck Freddie
TTITLE1=Miracles
TTITLE2=Git Fiddler
TTITLE3=Al Garimasü (There Is Love)
TTITLE4=Sweeter Than Honey
TTITLE5=Play On Love
TTITLE6=Tumblin
TTITLE7=I Want To See Another World
TTITLE8=Sandalphon
TTITLE9=There Will Be Love
EXTD=
EXTT0=
EXTT1=
EXTT2=
EXTT3=
EXTT4=
EXTT5=
EXTT6=
EXTT7=
EXTT8=
EXTT9=
PLAYORDER=
